<svg width="61" height="53" viewBox="0 0 61 53" fill="none" xmlns="http://www.w3.org/2000/svg">
<path d="M48.4902 0H12.5098C5.61171 0 0 5.92124 0 13.1998V33.5868C0 39.3946 3.61378 44.453 8.85038 46.0721L14.8921 52.4476C15.2277 52.8011 15.6819 53 16.1561 53C16.6299 53 17.0846 52.8011 17.4197 52.4476L22.962 46.599H48.4902C55.3883 46.599 61 40.6777 61 33.3992V13.1998C61 5.92124 55.3883 0 48.4902 0ZM57.4258 33.3992C57.4258 38.5981 53.4174 42.8276 48.4902 42.8276H22.2221C21.7483 42.8276 21.2936 43.0265 20.9585 43.3801L16.1561 48.4473L11.0415 43.0506C10.812 42.8085 10.5244 42.6366 10.2093 42.5541C6.30282 41.5283 3.57422 37.8409 3.57422 33.5868V13.1998C3.57422 8.0009 7.58265 3.77137 12.5098 3.77137H48.4902C53.4174 3.77137 57.4258 8.0009 57.4258 13.1998V33.3992Z" fill="url(#paint0_linear)"/>
<path d="M17.8203 26.8109C17.3368 26.8109 16.9444 26.5323 16.9444 26.1892V19.9721C16.9444 19.629 17.3368 19.3504 17.8203 19.3504C18.3037 19.3504 18.6961 19.629 18.6961 19.9721V26.1892C18.696 26.5323 18.3037 26.8109 17.8203 26.8109Z" fill="url(#paint1_linear)"/>
<path d="M21.4431 31.7845C20.9596 31.7845 20.5672 31.5059 20.5672 31.1627V14.9985C20.5672 14.6553 20.9596 14.3768 21.4431 14.3768C21.9265 14.3768 22.3189 14.6553 22.3189 14.9985V31.1627C22.3189 31.5059 21.9265 31.7845 21.4431 31.7845Z" fill="url(#paint2_linear)"/>
<path d="M25.0658 36.7581C24.5824 36.7581 24.19 36.4795 24.19 36.1363V10.0249C24.19 9.68177 24.5824 9.40323 25.0658 9.40323C25.5493 9.40323 25.9417 9.68177 25.9417 10.0249V36.1364C25.9416 36.4796 25.5493 36.7581 25.0658 36.7581Z" fill="url(#paint3_linear)"/>
<path d="M28.6885 35.5147C28.2051 35.5147 27.8127 35.2362 27.8127 34.893V11.2683C27.8127 10.9252 28.2051 10.6466 28.6885 10.6466C29.172 10.6466 29.5643 10.9252 29.5643 11.2683V34.893C29.5643 35.2362 29.172 35.5147 28.6885 35.5147Z" fill="url(#paint4_linear)"/>
<path d="M32.3114 30.5411C31.828 30.5411 31.4356 30.2625 31.4356 29.9194V16.2419C31.4356 15.8987 31.828 15.6202 32.3114 15.6202C32.7949 15.6202 33.1873 15.8987 33.1873 16.2419V29.9194C33.1872 30.2625 32.7949 30.5411 32.3114 30.5411Z" fill="url(#paint5_linear)"/>
<path d="M35.9341 35.5147C35.4507 35.5147 35.0583 35.2362 35.0583 34.893V11.2683C35.0583 10.9252 35.4507 10.6466 35.9341 10.6466C36.4176 10.6466 36.81 10.9252 36.81 11.2683V34.893C36.8099 35.2362 36.4176 35.5147 35.9341 35.5147Z" fill="url(#paint6_linear)"/>
<path d="M39.5569 30.5411C39.0735 30.5411 38.6811 30.2625 38.6811 29.9194V16.2419C38.6811 15.8987 39.0735 15.6202 39.5569 15.6202C40.0404 15.6202 40.4328 15.8987 40.4328 16.2419V29.9194C40.4327 30.2625 40.0404 30.5411 39.5569 30.5411Z" fill="url(#paint7_linear)"/>
<path d="M43.1797 26.8109C42.6963 26.8109 42.3039 26.5323 42.3039 26.1892V19.9721C42.3039 19.629 42.6963 19.3504 43.1797 19.3504C43.6632 19.3504 44.0556 19.629 44.0556 19.9721V26.1892C44.0555 26.5323 43.6632 26.8109 43.1797 26.8109Z" fill="url(#paint8_linear)"/>
<defs>
<linearGradient id="paint0_linear" x1="0" y1="26.5" x2="61" y2="26.5" gradientUnits="userSpaceOnUse">
<stop stop-color="#6B4AF1"/>
<stop offset="1" stop-color="#CD0B84"/>
</linearGradient>
<linearGradient id="paint1_linear" x1="0" y1="26.5" x2="61" y2="26.5" gradientUnits="userSpaceOnUse">
<stop stop-color="#6B4AF1"/>
<stop offset="1" stop-color="#CD0B84"/>
</linearGradient>
<linearGradient id="paint2_linear" x1="0" y1="26.5" x2="61" y2="26.5" gradientUnits="userSpaceOnUse">
<stop stop-color="#6B4AF1"/>
<stop offset="1" stop-color="#CD0B84"/>
</linearGradient>
<linearGradient id="paint3_linear" x1="0" y1="26.5" x2="61" y2="26.5" gradientUnits="userSpaceOnUse">
<stop stop-color="#6B4AF1"/>
<stop offset="1" stop-color="#CD0B84"/>
</linearGradient>
<linearGradient id="paint4_linear" x1="0" y1="26.5" x2="61" y2="26.5" gradientUnits="userSpaceOnUse">
<stop stop-color="#6B4AF1"/>
<stop offset="1" stop-color="#CD0B84"/>
</linearGradient>
<linearGradient id="paint5_linear" x1="0" y1="26.5" x2="61" y2="26.5" gradientUnits="userSpaceOnUse">
<stop stop-color="#6B4AF1"/>
<stop offset="1" stop-color="#CD0B84"/>
</linearGradient>
<linearGradient id="paint6_linear" x1="0" y1="26.5" x2="61" y2="26.5" gradientUnits="userSpaceOnUse">
<stop stop-color="#6B4AF1"/>
<stop offset="1" stop-color="#CD0B84"/>
</linearGradient>
<linearGradient id="paint7_linear" x1="0" y1="26.5" x2="61" y2="26.5" gradientUnits="userSpaceOnUse">
<stop stop-color="#6B4AF1"/>
<stop offset="1" stop-color="#CD0B84"/>
</linearGradient>
<linearGradient id="paint8_linear" x1="0" y1="26.5" x2="61" y2="26.5" gradientUnits="userSpaceOnUse">
<stop stop-color="#6B4AF1"/>
<stop offset="1" stop-color="#CD0B84"/>
</linearGradient>
</defs>
</svg>
