<svg width="22" height="22" viewBox="0 0 22 22" fill="none" xmlns="http://www.w3.org/2000/svg">
<path d="M21.5192 19.9809L17.5 15.9942C19.0601 14.049 19.8156 11.5799 19.6112 9.09476C19.4068 6.6096 18.258 4.2972 16.401 2.63305C14.544 0.9689 12.12 0.0794877 9.62735 0.147695C7.13473 0.215902 4.76297 1.23654 2.99976 2.99976C1.23654 4.76297 0.215902 7.13473 0.147695 9.62735C0.0794877 12.12 0.9689 14.544 2.63305 16.401C4.2972 18.258 6.6096 19.4068 9.09476 19.6112C11.5799 19.8156 14.049 19.0601 15.9942 17.5L19.9809 21.4867C20.0816 21.5882 20.2014 21.6688 20.3334 21.7238C20.4654 21.7788 20.607 21.8071 20.75 21.8071C20.893 21.8071 21.0346 21.7788 21.1666 21.7238C21.2987 21.6688 21.4185 21.5882 21.5192 21.4867C21.7144 21.2847 21.8236 21.0147 21.8236 20.7338C21.8236 20.4528 21.7144 20.1829 21.5192 19.9809ZM9.91669 17.5C8.41684 17.5 6.95068 17.0553 5.70361 16.222C4.45654 15.3887 3.48456 14.2044 2.9106 12.8187C2.33663 11.433 2.18646 9.90827 2.47906 8.43725C2.77167 6.96623 3.49391 5.61501 4.55446 4.55446C5.61501 3.49391 6.96623 2.77167 8.43725 2.47906C9.90827 2.18646 11.433 2.33663 12.8187 2.9106C14.2044 3.48456 15.3887 4.45654 16.222 5.70361C17.0553 6.95068 17.5 8.41684 17.5 9.91669C17.5 11.9279 16.7011 13.8568 15.2789 15.2789C13.8568 16.7011 11.9279 17.5 9.91669 17.5Z" fill="#263238"/>
</svg>
