<svg width="32" height="32" viewBox="0 0 32 32" fill="none" xmlns="http://www.w3.org/2000/svg">
<path d="M25.8666 20C25.6891 20.4022 25.6362 20.8483 25.7146 21.2808C25.793 21.7134 25.9992 22.1125 26.3066 22.4267L26.3866 22.5067C26.6345 22.7544 26.8312 23.0485 26.9654 23.3722C27.0996 23.6959 27.1687 24.0429 27.1687 24.3934C27.1687 24.7438 27.0996 25.0908 26.9654 25.4145C26.8312 25.7383 26.6345 26.0324 26.3866 26.28C26.1389 26.528 25.8448 26.7247 25.5211 26.8589C25.1974 26.9931 24.8504 27.0621 24.4999 27.0621C24.1495 27.0621 23.8025 26.9931 23.4787 26.8589C23.155 26.7247 22.8609 26.528 22.6132 26.28L22.5333 26.2C22.219 25.8927 21.8199 25.6865 21.3874 25.608C20.9548 25.5296 20.5087 25.5826 20.1066 25.76C19.7122 25.9291 19.3759 26.2097 19.139 26.5674C18.9021 26.9251 18.775 27.3443 18.7733 27.7734V28C18.7733 28.7073 18.4923 29.3856 17.9922 29.8857C17.4921 30.3858 16.8138 30.6667 16.1066 30.6667C15.3993 30.6667 14.7211 30.3858 14.221 29.8857C13.7209 29.3856 13.4399 28.7073 13.4399 28V27.88C13.4296 27.4387 13.2867 27.0107 13.0299 26.6516C12.7731 26.2926 12.4142 26.0191 11.9999 25.8667C11.5978 25.6892 11.1517 25.6363 10.7191 25.7147C10.2866 25.7931 9.88749 25.9993 9.57325 26.3067L9.49325 26.3867C9.24559 26.6346 8.95149 26.8313 8.62776 26.9655C8.30403 27.0997 7.95703 27.1688 7.60658 27.1688C7.25614 27.1688 6.90914 27.0997 6.58541 26.9655C6.26168 26.8313 5.96758 26.6346 5.71992 26.3867C5.47198 26.139 5.27529 25.8449 5.14109 25.5212C5.00689 25.1975 4.93782 24.8505 4.93782 24.5C4.93782 24.1496 5.00689 23.8026 5.14109 23.4789C5.27529 23.1551 5.47198 22.861 5.71992 22.6134L5.79992 22.5334C6.1073 22.2191 6.3135 21.82 6.39192 21.3875C6.47035 20.955 6.41741 20.5089 6.23992 20.1067C6.0709 19.7123 5.79026 19.376 5.43254 19.1391C5.07482 18.9022 4.65563 18.7751 4.22659 18.7734H3.99992C3.29267 18.7734 2.6144 18.4924 2.1143 17.9923C1.6142 17.4922 1.33325 16.814 1.33325 16.1067C1.33325 15.3995 1.6142 14.7212 2.1143 14.2211C2.6144 13.721 3.29267 13.44 3.99992 13.44H4.11992C4.56124 13.4297 4.98926 13.2869 5.34832 13.0301C5.70738 12.7732 5.98087 12.4144 6.13325 12C6.31074 11.5979 6.36368 11.1518 6.28526 10.7193C6.20683 10.2867 6.00063 9.88761 5.69325 9.57337L5.61325 9.49337C5.36531 9.24571 5.16862 8.95161 5.03443 8.62788C4.90023 8.30415 4.83115 7.95715 4.83115 7.60671C4.83115 7.25627 4.90023 6.90926 5.03443 6.58553C5.16862 6.2618 5.36531 5.9677 5.61325 5.72004C5.86091 5.4721 6.15502 5.27541 6.47874 5.14121C6.80247 5.00702 7.14948 4.93794 7.49992 4.93794C7.85036 4.93794 8.19736 5.00702 8.52109 5.14121C8.84482 5.27541 9.13892 5.4721 9.38658 5.72004L9.46658 5.80004C9.78082 6.10742 10.1799 6.31362 10.6125 6.39205C11.045 6.47047 11.4911 6.41753 11.8933 6.24004H11.9999C12.3943 6.07102 12.7306 5.79038 12.9675 5.43266C13.2044 5.07494 13.3315 4.65576 13.3333 4.22671V4.00004C13.3333 3.2928 13.6142 2.61452 14.1143 2.11442C14.6144 1.61433 15.2927 1.33337 15.9999 1.33337C16.7072 1.33337 17.3854 1.61433 17.8855 2.11442C18.3856 2.61452 18.6666 3.2928 18.6666 4.00004V4.12004C18.6683 4.54909 18.7954 4.96827 19.0323 5.32599C19.2692 5.68371 19.6056 5.96436 19.9999 6.13337C20.4021 6.31086 20.8482 6.3638 21.2807 6.28538C21.7132 6.20695 22.1123 6.00076 22.4266 5.69337L22.5066 5.61337C22.7542 5.36544 23.0483 5.16875 23.3721 5.03455C23.6958 4.90035 24.0428 4.83128 24.3933 4.83128C24.7437 4.83128 25.0907 4.90035 25.4144 5.03455C25.7382 5.16875 26.0323 5.36544 26.2799 5.61337C26.5279 5.86104 26.7245 6.15514 26.8587 6.47887C26.9929 6.80259 27.062 7.1496 27.062 7.50004C27.062 7.85048 26.9929 8.19749 26.8587 8.52121C26.7245 8.84494 26.5279 9.13905 26.2799 9.38671L26.1999 9.46671C25.8925 9.78095 25.6863 10.1801 25.6079 10.6126C25.5295 11.0451 25.5824 11.4912 25.7599 11.8934V12C25.9289 12.3944 26.2096 12.7307 26.5673 12.9676C26.925 13.2045 27.3442 13.3317 27.7733 13.3334H27.9999C28.7072 13.3334 29.3854 13.6143 29.8855 14.1144C30.3856 14.6145 30.6666 15.2928 30.6666 16C30.6666 16.7073 30.3856 17.3856 29.8855 17.8857C29.3854 18.3858 28.7072 18.6667 27.9999 18.6667H27.8799C27.4509 18.6684 27.0317 18.7955 26.674 19.0324C26.3162 19.2694 26.0356 19.6057 25.8666 20V20Z" stroke="#546E7A" stroke-width="2" stroke-linecap="round" stroke-linejoin="round"/>
</svg>
