<svg width="56" height="56" viewBox="0 0 56 56" fill="none" xmlns="http://www.w3.org/2000/svg">
<circle cx="28" cy="28" r="28" fill="#6E48ED"/>
<path d="M39.9163 35.5833C39.9163 36.158 39.6881 36.7091 39.2817 37.1154C38.8754 37.5217 38.3243 37.75 37.7497 37.75H18.2497C17.675 37.75 17.1239 37.5217 16.7176 37.1154C16.3113 36.7091 16.083 36.158 16.083 35.5833V23.6667C16.083 23.092 16.3113 22.5409 16.7176 22.1346C17.1239 21.7283 17.675 21.5 18.2497 21.5H22.583L24.7497 18.25H31.2497L33.4163 21.5H37.7497C38.3243 21.5 38.8754 21.7283 39.2817 22.1346C39.6881 22.5409 39.9163 23.092 39.9163 23.6667V35.5833Z" stroke="white" stroke-width="2" stroke-linecap="round" stroke-linejoin="round"/>
<path d="M28.0003 33.4167C30.3936 33.4167 32.3337 31.4766 32.3337 29.0833C32.3337 26.6901 30.3936 24.75 28.0003 24.75C25.6071 24.75 23.667 26.6901 23.667 29.0833C23.667 31.4766 25.6071 33.4167 28.0003 33.4167Z" stroke="white" stroke-width="2" stroke-linecap="round" stroke-linejoin="round"/>
</svg>
