<svg width="26" height="26" viewBox="0 0 26 26" fill="none" xmlns="http://www.w3.org/2000/svg">
<path d="M22.7498 11.375H21.6665V10.2917C21.6665 10.0044 21.5524 9.72882 21.3492 9.52566C21.146 9.32249 20.8705 9.20835 20.5832 9.20835C20.2959 9.20835 20.0203 9.32249 19.8171 9.52566C19.614 9.72882 19.4998 10.0044 19.4998 10.2917V11.375H18.4165C18.1292 11.375 17.8536 11.4892 17.6505 11.6923C17.4473 11.8955 17.3332 12.171 17.3332 12.4584C17.3332 12.7457 17.4473 13.0212 17.6505 13.2244C17.8536 13.4276 18.1292 13.5417 18.4165 13.5417H19.4998V14.625C19.4998 14.9123 19.614 15.1879 19.8171 15.3911C20.0203 15.5942 20.2959 15.7084 20.5832 15.7084C20.8705 15.7084 21.146 15.5942 21.3492 15.3911C21.5524 15.1879 21.6665 14.9123 21.6665 14.625V13.5417H22.7498C23.0372 13.5417 23.3127 13.4276 23.5159 13.2244C23.719 13.0212 23.8332 12.7457 23.8332 12.4584C23.8332 12.171 23.719 11.8955 23.5159 11.6923C23.3127 11.4892 23.0372 11.375 22.7498 11.375ZM14.4082 13.2384C14.9862 12.738 15.4499 12.1191 15.7676 11.4238C16.0854 10.7284 16.2498 9.97287 16.2498 9.20835C16.2498 7.77176 15.6792 6.39401 14.6633 5.37819C13.6475 4.36237 12.2698 3.79169 10.8332 3.79169C9.39658 3.79169 8.01883 4.36237 7.00301 5.37819C5.98719 6.39401 5.4165 7.77176 5.4165 9.20835C5.4165 9.97287 5.58096 10.7284 5.89872 11.4238C6.21649 12.1191 6.68013 12.738 7.25817 13.2384C5.74166 13.9251 4.45501 15.034 3.55207 16.4326C2.64912 17.8312 2.1681 19.4603 2.1665 21.125C2.1665 21.4123 2.28064 21.6879 2.4838 21.8911C2.68697 22.0942 2.96252 22.2084 3.24984 22.2084C3.53716 22.2084 3.81271 22.0942 4.01587 21.8911C4.21903 21.6879 4.33317 21.4123 4.33317 21.125C4.33317 19.4011 5.01799 17.7478 6.23698 16.5288C7.45596 15.3098 9.10926 14.625 10.8332 14.625C12.5571 14.625 14.2104 15.3098 15.4294 16.5288C16.6484 17.7478 17.3332 19.4011 17.3332 21.125C17.3332 21.4123 17.4473 21.6879 17.6505 21.8911C17.8536 22.0942 18.1292 22.2084 18.4165 22.2084C18.7038 22.2084 18.9794 22.0942 19.1825 21.8911C19.3857 21.6879 19.4998 21.4123 19.4998 21.125C19.4982 19.4603 19.0172 17.8312 18.1143 16.4326C17.2113 15.034 15.9247 13.9251 14.4082 13.2384ZM10.8332 12.4584C10.1904 12.4584 9.56203 12.2677 9.02757 11.9106C8.49311 11.5535 8.07655 11.0459 7.83056 10.4521C7.58458 9.85822 7.52022 9.20475 7.64562 8.57431C7.77102 7.94387 8.08055 7.36478 8.53507 6.91026C8.98959 6.45574 9.56869 6.1462 10.1991 6.0208C10.8296 5.8954 11.483 5.95976 12.0769 6.20575C12.6708 6.45173 13.1783 6.86829 13.5354 7.40275C13.8926 7.93721 14.0832 8.56556 14.0832 9.20835C14.0832 10.0703 13.7408 10.897 13.1313 11.5065C12.5218 12.1159 11.6951 12.4584 10.8332 12.4584Z" fill="url(#paint0_linear)"/>
<defs>
<linearGradient id="paint0_linear" x1="2.1665" y1="13" x2="23.8332" y2="13" gradientUnits="userSpaceOnUse">
<stop stop-color="#6B4AF1"/>
<stop offset="1" stop-color="#CD0B84"/>
</linearGradient>
</defs>
</svg>
