<svg width="70" height="70" viewBox="0 0 70 70" fill="none" xmlns="http://www.w3.org/2000/svg">
<circle cx="35" cy="35" r="35" fill="#6E48ED"/>
<path d="M46.9273 26.1676C46.762 25.9957 46.5652 25.8592 46.3484 25.7661C46.1317 25.6729 45.8992 25.625 45.6643 25.625C45.4295 25.625 45.197 25.6729 44.9802 25.7661C44.7634 25.8592 44.5667 25.9957 44.4013 26.1676L31.1487 39.8519L25.5809 34.092C25.4092 33.921 25.2065 33.7865 24.9844 33.6962C24.7623 33.606 24.5251 33.5617 24.2864 33.566C24.0477 33.5702 23.8122 33.6229 23.5933 33.721C23.3743 33.8192 23.1763 33.9608 23.0104 34.1379C22.8445 34.3149 22.7141 34.5239 22.6266 34.7529C22.5391 34.982 22.4961 35.2265 22.5003 35.4727C22.5044 35.7188 22.5555 35.9617 22.6507 36.1875C22.7458 36.4132 22.8832 36.6175 23.0549 36.7885L29.8857 43.8324C30.0511 44.0043 30.2479 44.1408 30.4646 44.2339C30.6814 44.3271 30.9139 44.375 31.1487 44.375C31.3836 44.375 31.6161 44.3271 31.8328 44.2339C32.0496 44.1408 32.2464 44.0043 32.4117 43.8324L46.9273 28.8641C47.1079 28.6923 47.252 28.4838 47.3506 28.2518C47.4491 28.0198 47.5 27.7692 47.5 27.5158C47.5 27.2625 47.4491 27.0119 47.3506 26.7799C47.252 26.5478 47.1079 26.3394 46.9273 26.1676Z" fill="white"/>
</svg>
