<svg width="26" height="26" viewBox="0 0 26 26" fill="none" xmlns="http://www.w3.org/2000/svg">
<path d="M25.2334 0.762238C24.217 -0.254201 22.5632 -0.2541 21.5468 0.762238L14.5627 7.7463L14.4131 7.59675C13.1143 6.29791 11.0433 6.17101 9.5957 7.30176L0.303678 14.5591C0.128634 14.6958 0.0206225 14.901 0.00706383 15.1227C-0.00649478 15.3445 0.0756187 15.5613 0.232685 15.7184L10.2872 25.7729C10.433 25.9188 10.6305 26.0001 10.8354 26.0001C10.8511 26.0001 10.867 25.9996 10.8828 25.9986C11.1045 25.985 11.3098 25.877 11.4465 25.702L18.7038 16.41C19.8344 14.9624 19.7075 12.8913 18.4087 11.5925L18.2493 11.433L25.2334 4.44881C26.2497 3.43242 26.2497 1.77863 25.2334 0.762238ZM10.7639 24.0565L8.50339 21.7959L11.2827 18.7379C11.5706 18.421 11.5472 17.9307 11.2304 17.6426C10.9134 17.3546 10.423 17.378 10.135 17.6949L7.4056 20.6981L5.30747 18.6L8.31068 15.8706C8.62755 15.5825 8.65096 15.0921 8.36298 14.7753C8.0749 14.4584 7.58466 14.4349 7.26768 14.7229L4.20968 17.5022L1.94915 15.2417L9.28532 9.51192L16.4937 16.7203L10.7639 24.0565ZM17.4816 15.4553L17.4553 15.4889L10.5166 8.55017L10.5503 8.52391C11.3814 7.87467 12.5708 7.94755 13.3165 8.69332L14.0143 9.39111L16.6044 11.9812L17.3121 12.6889C18.058 13.4347 18.1308 14.624 17.4816 15.4553ZM24.1368 3.35224L17.1527 10.3364L15.6592 8.84282L22.6433 1.85876C23.0551 1.44697 23.7251 1.44708 24.1368 1.85876C24.5486 2.27055 24.5486 2.94045 24.1368 3.35224Z" fill="#263238"/>
</svg>
