<svg width="26" height="26" viewBox="0 0 26 26" fill="none" xmlns="http://www.w3.org/2000/svg">
<path d="M25.2331 0.762231C24.2167 -0.254209 22.5629 -0.254107 21.5466 0.762231L14.5624 7.74629L14.4129 7.59674C13.114 6.29791 11.0431 6.171 9.59545 7.30175L0.303434 14.5591C0.12839 14.6958 0.0203783 14.901 0.00681969 15.1227C-0.00673892 15.3445 0.0753745 15.5613 0.232441 15.7184L10.2869 25.7729C10.4328 25.9188 10.6302 26.0001 10.8351 26.0001C10.8509 26.0001 10.8667 25.9995 10.8826 25.9986C11.1043 25.985 11.3095 25.877 11.4462 25.702L18.7035 16.4099C19.8341 14.9624 19.7073 12.8913 18.4085 11.5925L18.2491 11.433L25.2331 4.4488C26.2495 3.43242 26.2495 1.77862 25.2331 0.762231ZM10.7637 24.0564L8.50315 21.7959L11.2824 18.7379C11.5704 18.421 11.547 17.9306 11.2301 17.6426C10.9132 17.3546 10.4228 17.378 10.1348 17.6949L7.40536 20.6981L5.30722 18.6L8.31043 15.8705C8.62731 15.5825 8.65072 15.0921 8.36274 14.7752C8.07465 14.4584 7.58441 14.4349 7.26743 14.7229L4.20943 17.5022L1.9489 15.2417L9.28508 9.51191L16.4935 16.7203L10.7637 24.0564ZM17.4813 15.4553L17.4551 15.4889L10.5164 8.55016L10.55 8.52391C11.3812 7.87467 12.5705 7.94754 13.3163 8.69331L14.0141 9.3911L16.6041 11.9812L17.3119 12.6889C18.0578 13.4347 18.1306 14.624 17.4813 15.4553ZM24.1366 3.35223L17.1525 10.3363L15.6589 8.84281L22.6431 1.85875C23.0548 1.44697 23.7249 1.44707 24.1365 1.85875C24.5483 2.27054 24.5483 2.94045 24.1366 3.35223Z" fill="#D20980"/>
</svg>
