<svg width="28" height="28" viewBox="0 0 28 28" fill="none" xmlns="http://www.w3.org/2000/svg">
<path d="M18.9467 14.9466C20.2539 13.9182 21.208 12.5079 21.6763 10.9119C22.1446 9.31591 22.1039 7.61365 21.5597 6.04192C21.0155 4.47019 19.995 3.10715 18.6401 2.14244C17.2852 1.17772 15.6633 0.659302 14 0.659302C12.3367 0.659302 10.7148 1.17772 9.3599 2.14244C8.00499 3.10715 6.98446 4.47019 6.44028 6.04192C5.8961 7.61365 5.85535 9.31591 6.32368 10.9119C6.79201 12.5079 7.74614 13.9182 9.05333 14.9466C6.81343 15.844 4.85905 17.3324 3.39852 19.2532C1.93799 21.1739 1.02608 23.455 0.759996 25.8533C0.740735 26.0284 0.756151 26.2056 0.805363 26.3747C0.854575 26.5438 0.936619 26.7016 1.04681 26.8391C1.26935 27.1166 1.59304 27.2944 1.94666 27.3333C2.30028 27.3722 2.65488 27.269 2.93243 27.0465C3.20998 26.8239 3.38776 26.5003 3.42666 26.1466C3.71944 23.5402 4.96224 21.133 6.91762 19.385C8.873 17.637 11.4039 16.6707 14.0267 16.6707C16.6495 16.6707 19.1803 17.637 21.1357 19.385C23.0911 21.133 24.3339 23.5402 24.6267 26.1466C24.6629 26.4743 24.8192 26.7768 25.0655 26.996C25.3117 27.2151 25.6304 27.3353 25.96 27.3333H26.1067C26.4562 27.2931 26.7756 27.1164 26.9954 26.8416C27.2152 26.5669 27.3175 26.2164 27.28 25.8666C27.0127 23.4616 26.0958 21.1746 24.6278 19.2509C23.1598 17.3272 21.1959 15.8393 18.9467 14.9466ZM14 14C12.9452 14 11.914 13.6872 11.037 13.1011C10.1599 12.5151 9.47631 11.6821 9.07264 10.7076C8.66897 9.73307 8.56335 8.66071 8.76914 7.62615C8.97493 6.59158 9.48288 5.64127 10.2288 4.89539C10.9746 4.14951 11.9249 3.64156 12.9595 3.43577C13.9941 3.22999 15.0664 3.3356 16.041 3.73927C17.0155 4.14294 17.8485 4.82653 18.4345 5.70359C19.0205 6.58065 19.3333 7.6118 19.3333 8.66663C19.3333 10.0811 18.7714 11.4377 17.7712 12.4379C16.771 13.4381 15.4145 14 14 14Z" fill="#546E7A"/>
</svg>
