<svg width="70" height="70" viewBox="0 0 70 70" fill="none" xmlns="http://www.w3.org/2000/svg">
<circle cx="35" cy="35" r="35" fill="#D20980"/>
<path d="M20.75 25.5H23.9167H49.25" fill="white"/>
<path d="M20.75 25.5H23.9167H49.25" stroke="white" stroke-width="2" stroke-linecap="round" stroke-linejoin="round"/>
<path d="M28.6665 25.5V22.3333C28.6665 21.4935 29.0001 20.688 29.594 20.0942C30.1879 19.5003 30.9933 19.1667 31.8332 19.1667H38.1665C39.0064 19.1667 39.8118 19.5003 40.4057 20.0942C40.9995 20.688 41.3332 21.4935 41.3332 22.3333V25.5M46.0832 25.5V47.6667C46.0832 48.5065 45.7495 49.312 45.1557 49.9058C44.5618 50.4997 43.7564 50.8333 42.9165 50.8333H27.0832C26.2433 50.8333 25.4379 50.4997 24.844 49.9058C24.2501 49.312 23.9165 48.5065 23.9165 47.6667V25.5H46.0832Z" stroke="white" stroke-width="2" stroke-linecap="round" stroke-linejoin="round"/>
</svg>
