<svg width="18" height="18" viewBox="0 0 18 18" fill="none" xmlns="http://www.w3.org/2000/svg">
<path d="M12.8902 2.05033C13.0911 1.84943 13.3296 1.69007 13.5921 1.58135C13.8545 1.47263 14.1359 1.41667 14.42 1.41667C14.7041 1.41667 14.9854 1.47263 15.2479 1.58135C15.5104 1.69007 15.7489 1.84943 15.9498 2.05033C16.1507 2.25122 16.31 2.48972 16.4187 2.7522C16.5275 3.01468 16.5834 3.29601 16.5834 3.58012C16.5834 3.86423 16.5275 4.14555 16.4187 4.40803C16.31 4.67052 16.1507 4.90901 15.9498 5.10991L5.62367 15.436L1.41675 16.5833L2.56409 12.3764L12.8902 2.05033Z" stroke="#263238" stroke-width="2" stroke-linecap="round" stroke-linejoin="round"/>
</svg>
