<svg width="19" height="18" viewBox="0 0 19 18" fill="none" xmlns="http://www.w3.org/2000/svg">
<path d="M13.3899 2.05035C13.5908 1.84945 13.8293 1.69009 14.0918 1.58137C14.3543 1.47265 14.6356 1.41669 14.9197 1.41669C15.2038 1.41669 15.4852 1.47265 15.7476 1.58137C16.0101 1.69009 16.2486 1.84945 16.4495 2.05035C16.6504 2.25124 16.8098 2.48974 16.9185 2.75222C17.0272 3.0147 17.0832 3.29603 17.0832 3.58014C17.0832 3.86425 17.0272 4.14557 16.9185 4.40805C16.8098 4.67054 16.6504 4.90903 16.4495 5.10993L6.12343 15.436L1.9165 16.5834L3.06385 12.3764L13.3899 2.05035Z" stroke="#6E48ED" stroke-width="2" stroke-linecap="round" stroke-linejoin="round"/>
</svg>
